# xmcd
#
# Track frame offsets: 
#        150
#        17632
#        37397
#        53225
#        69650
#        88242
#        109065
#        124000
#        146525
#        165592
#        183542
#        200860
#        214759
#        225495
#        241925
#        257942
#        269442
#        282552
#
# Disc length: 3993 seconds
#
# Revision: 1
# Processed by: cddbd v1.5.1PL0 Copyright (c) Steve Scherf et al.
# Submitted via: ExactAudioCopy v0.95a5
#
DISCID=1b0f9712
DTITLE=Dona Ivone Lara, Beth Carvalho, João Nogueira - Pirajá Esquina 
DTITLE=Carioca
DYEAR=1999
DGENRE=Samba
TTITLE0=Patrão Prenda Seu Gado (Incidental) - Jogo Rasteiro
TTITLE1=Prá Que Pedir Perdão ?
TTITLE2=Olha Aí !
TTITLE3=A.M.O.R. Amor
TTITLE4=Além Da Razão
TTITLE5=Doce Refúgio
TTITLE6=Minha Missão
TTITLE7=Espelho
TTITLE8=Axé De Ianga (Pai Maior)
TTITLE9=Candeeiro Da Vovó
TTITLE10=Exaltação À Mangueira (Incidental) - Folhas Secas
TTITLE11=Geografia Popular
TTITLE12=Sacode Carola
TTITLE13=Sem Endereço
TTITLE14=O Poder Da Criação
TTITLE15=Acreditar
TTITLE16=Não Sou Mais Disso
TTITLE17=Saudades Da Guanabara
EXTD=
EXTT0=
EXTT1=
EXTT2=
EXTT3=
EXTT4=
EXTT5=
EXTT6=
EXTT7=
EXTT8=
EXTT9=
EXTT10=
EXTT11=
EXTT12=
EXTT13=
EXTT14=
EXTT15=
EXTT16=
EXTT17=
PLAYORDER=
